<?xml version="1.0" encoding="utf-8"?>
<!-- Generator: Adobe Illustrator 24.3.0, SVG Export Plug-In . SVG Version: 6.00 Build 0)  -->
<svg version="1.1" id="Layer_1" xmlns="http://www.w3.org/2000/svg" xmlns:xlink="http://www.w3.org/1999/xlink" x="0px" y="0px"
	 viewBox="0 0 1190.55 841.89" style="enable-background:new 0 0 1190.55 841.89;" xml:space="preserve">
<style type="text/css">
	.st0{clip-path:url(#SVGID_2_);}
	.st1{clip-path:url(#SVGID_2_);fill:none;stroke:#000000;stroke-miterlimit:10;}
	.st2{clip-path:url(#SVGID_2_);fill:none;stroke:#000000;stroke-width:40;stroke-miterlimit:10;}
	.st3{clip-path:url(#SVGID_2_);fill:none;stroke:#000000;stroke-width:37;stroke-miterlimit:10;}
</style>
<g>
	<defs>
		<rect id="SVGID_1_" x="0.33" width="1190.55" height="841.89"/>
	</defs>
	<clipPath id="SVGID_2_">
		<use xlink:href="#SVGID_1_"  style="overflow:visible;"/>
	</clipPath>
	<path class="st0" d="M582.04,446.78H118.78c0,0-12.16-0.22-19.49,9.63c-7.13,9.58-5.59,18.81-4.22,23.26s4.78,10.26,8.86,13.28
		c4.18,3.09,9.66,4.94,14.86,5.83c4.18,0.72,468.74,0,468.74,0l3.56,58.43l-32.1-31.96l-26.37,30.58l-28.62-30.58l-24.2,30.26
		l-26.44-30.26l-25.32,30.46l-24.66-30.46l-24.53,30.46l-25.19-30.46l-24,30.46l-23.47-30.46l-25.12,30.46l-23.87-30.46
		l-25.55,30.56l-24.43-30.56l-24.59,30.46l-23.07-30.49l-22.35,30.49l-20.98-32.05L83.37,549l-1.48-39.67l-37.98-4.3l23.99-32.09
		l-23.62-31.75l39.44-6.04L89.14,401l30.07,19.83l17.59-31.76l20.18,31.76l24.04-31.76l26.04,31.76l23.7-31.76l26.37,31.76
		L280.55,389l25.48,31.83L329.19,389l24.54,31.83l24.8-31.83l24.68,31.83L427.36,389l25.93,31.83l23.52-31.76l26.55,31.76
		l24.96-31.76l29.37,41.2l19.45-9.44L582.04,446.78z"/>
	<path class="st0" d="M592.5,319.18l11.94-1.96l20.25,123.26c3.6,21.93,24.32,36.78,46.25,33.15c21.18-3.51,35.53-23.49,32.08-44.68
		L682.73,304.4l147.53-24.17c26.67-4.37,51.79,13.82,55.96,40.52l28.93,185.38c4.6,29.51-18.22,56.17-48.09,56.17H600.37
		c-26.88,0-48.67-21.79-48.67-48.67V367.21C551.7,343.37,568.98,323.04,592.5,319.18"/>
	<path class="st1" d="M592.5,319.18l11.94-1.96l20.25,123.26c3.6,21.93,24.32,36.78,46.25,33.15c21.18-3.51,35.53-23.49,32.08-44.68
		L682.73,304.4l147.53-24.17c26.67-4.37,51.79,13.82,55.96,40.52l28.93,185.38c4.6,29.51-18.22,56.17-48.09,56.17H600.37
		c-26.88,0-48.67-21.79-48.67-48.67V367.21C551.7,343.37,568.98,323.04,592.5,319.18z"/>
	<path class="st2" d="M850.16,341.64l198.7,77.56c21.81,9.9,42.56,26.52,42.56,53.64c0,27.11-18.74,49.1-41.85,49.1H858.95
		C835.83,521.93,827.04,341.64,850.16,341.64z"/>
	<path class="st3" d="M590.16,340.11L566.07,195.4c-4.86-29.18,14.72-56.76,43.72-61.58"/>
	<path class="st2" d="M663.11,431.78l-33.44-202.92c-2.93-17.81,8.38-34.5,25.27-37.29c16.89-2.78,32.96,9.4,35.9,27.21l10.26,62.89
		"/>
	<path class="st0" d="M683.14,431.78c0,11.01-8.95,19.93-20,19.93c-11.05,0-20-8.92-20-19.93c0-11,8.95-19.93,20-19.93
		C674.19,411.86,683.14,420.78,683.14,431.78"/>
	<path class="st0" d="M628.88,133.73c0,10.18-8.26,18.44-18.44,18.44c-10.18,0-18.44-8.25-18.44-18.44
		c0-10.18,8.25-18.44,18.44-18.44C620.63,115.3,628.88,123.55,628.88,133.73"/>
</g>
</svg>
